<?xml version="1.0" encoding="utf-8"?>
<!-- Generator: Adobe Illustrator 27.2.0, SVG Export Plug-In . SVG Version: 6.00 Build 0)  -->
<svg version="1.1" id="Layer_1" xmlns="http://www.w3.org/2000/svg" xmlns:xlink="http://www.w3.org/1999/xlink" x="0px" y="0px"
	 viewBox="0 0 64 64" style="enable-background:new 0 0 64 64;" xml:space="preserve">
<style type="text/css">
	.st0{fill:#192857;}
	.st1{fill:#FFFFFF;}
</style>
<g>
	<path class="st0" d="M63,32C63,14.88,49.12,1,32,1S1,14.88,1,32s13.88,31,31,31S63,49.12,63,32"/>
	<path class="st1" d="M45.27,29.37H16.05c-1.45,0-2.63,1.18-2.63,2.63c0,1.45,1.18,2.63,2.63,2.63h0.56c0.7,3.79,2.89,7.1,6.1,9.25
		c-0.24,0.4-0.38,0.87-0.38,1.35c0,1.45,1.18,2.63,2.63,2.63h11.41c1.45,0,2.63-1.18,2.63-2.63c0-0.48-0.13-0.94-0.38-1.35
		c3.21-2.14,5.39-5.46,6.1-9.25h0.56c1.45,0,2.63-1.18,2.63-2.63C47.9,30.55,46.72,29.37,45.27,29.37"/>
	<path class="st1" d="M41.38,27.78l3.98-3.98c0.61,0.11,1.24-0.08,1.68-0.52l0.31-0.31c0.55-0.55,0.71-1.41,0.39-2.13l-4.17-4.23
		l-0.19-0.13c-0.72-0.32-1.58-0.17-2.13,0.38l-0.31,0.31c-0.44,0.44-0.63,1.07-0.52,1.68l-8.93,8.93H41.38z"/>
</g>
</svg>
