<?xml version="1.0" encoding="utf-8"?>
<!-- Generator: Adobe Illustrator 27.2.0, SVG Export Plug-In . SVG Version: 6.00 Build 0)  -->
<svg version="1.1" id="Layer_1" xmlns="http://www.w3.org/2000/svg" xmlns:xlink="http://www.w3.org/1999/xlink" x="0px" y="0px"
	 viewBox="0 0 64 64" style="enable-background:new 0 0 64 64;" xml:space="preserve">
<style type="text/css">
	.st0{fill:#192857;}
	.st1{fill:#FFFFFF;}
</style>
<g>
	<path class="st0" d="M63.51,32C63.51,14.6,49.4,0.49,32,0.49S0.49,14.6,0.49,32S14.6,63.51,32,63.51S63.51,49.4,63.51,32"/>
	<path class="st1" d="M45.67,35.3l-0.09,0.01c-2.44,0.19-4.13,0.24-5.14,0.16c-0.42-0.03-0.66-0.08-0.89-0.16
		c-0.12-0.05-0.26-0.11-0.4-0.25c-0.08-0.08-0.15-0.18-0.2-0.29c-0.02-0.05-0.04-0.1-0.05-0.15l-2.89-11.25L31.55,44.3
		c-0.09,0.43-0.47,0.73-0.9,0.73c-0.06,0-0.12-0.01-0.18-0.02c-0.36-0.08-0.64-0.36-0.71-0.72l-2.72-13.63l-1.71,4.09
		c-0.14,0.34-0.47,0.56-0.84,0.56h-5.84c-0.22,0-0.47-0.09-0.65-0.26c-0.17-0.17-0.27-0.4-0.28-0.64c0-0.24,0.09-0.47,0.26-0.65
		c0.17-0.18,0.4-0.27,0.64-0.28h5.26l2.63-6.28c0.09-0.23,0.27-0.4,0.5-0.49c0.23-0.09,0.47-0.09,0.7,0
		c0.28,0.12,0.48,0.37,0.54,0.66l2.44,12.22l4.37-20.4c0.09-0.42,0.46-0.72,0.89-0.72h0.02c0.41,0.01,0.76,0.29,0.86,0.69
		l3.72,14.49c0.01,0,0.02,0,0.04,0c0.51,0.04,1.83,0.07,4.87-0.16c0.5-0.06,0.95,0.3,1.01,0.79C46.53,34.78,46.18,35.24,45.67,35.3
		 M41.38,13.05c-4.99,0-8.19,3.45-9.38,5.01c-1.2-1.56-4.4-5.01-9.38-5.01c-6.4,0-10.78,5.35-10.78,11.35
		c0,6.04,4.79,18.43,19.86,26.46c0.19,0.1,0.42,0.1,0.6,0C40.81,46.34,46.05,40.39,48.98,35c0-0.01,0.01-0.02,0.01-0.03l1.45-3.05
		c0.01-0.01,0.01-0.02,0.01-0.03c1.19-2.92,1.7-5.52,1.7-7.48C52.17,18.41,47.78,13.05,41.38,13.05"/>
</g>
</svg>
