<?xml version="1.0" encoding="utf-8"?>
<!-- Generator: Adobe Illustrator 27.2.0, SVG Export Plug-In . SVG Version: 6.00 Build 0)  -->
<svg version="1.1" id="Layer_1" xmlns="http://www.w3.org/2000/svg" xmlns:xlink="http://www.w3.org/1999/xlink" x="0px" y="0px"
	 viewBox="0 0 64 64" style="enable-background:new 0 0 64 64;" xml:space="preserve">
<style type="text/css">
	.st0{fill:#192857;}
	.st1{fill:#FFFFFF;}
</style>
<g>
	<path class="st0" d="M63,32C63,14.88,49.12,1,32,1C14.88,1,1,14.88,1,32c0,17.12,13.88,31,31,31C49.12,63,63,49.12,63,32"/>
	<path class="st1" d="M45.26,28.95l3.87,1.17l2.63-3.77l-2.81-3.61l-3.69,0.96V28.95z M31.78,28.81l5.05,3.01l5.01-2.63v-5.83
		l-5-2.98l-5.11,2.99L31.78,28.81z M30.01,47.6l-6.77-3.99l-6.77,3.99l-8.48-5v-9.8l8.56-5l6.7,4l5.11-2.99l-0.07-7.4l8.57-5.01
		l6.95,4.15l6.45-1.67l5.74,7.37l-5.49,7.87l-6.79-2.05l-5.23,2.75v7.78L30.01,47.6z M23.18,36.18l-6.65-4.41l-5.12,2.99v5.88
		l5.06,2.99l6.77-3.99l6.77,3.99l5.06-2.99v-5.89l-5-2.98L23.18,36.18 M23.5,35.97L23.5,35.97z"/>
</g>
</svg>
