<?xml version="1.0" encoding="utf-8"?>
<!-- Generator: Adobe Illustrator 27.2.0, SVG Export Plug-In . SVG Version: 6.00 Build 0)  -->
<svg version="1.1" id="Layer_1" xmlns="http://www.w3.org/2000/svg" xmlns:xlink="http://www.w3.org/1999/xlink" x="0px" y="0px"
	 viewBox="0 0 64 64" style="enable-background:new 0 0 64 64;" xml:space="preserve">
<style type="text/css">
	.st0{fill:#192857;}
	.st1{fill:#FFFFFF;}
</style>
<g>
	<path class="st0" d="M63.28,32C63.28,14.72,49.28,0.72,32,0.72S0.72,14.72,0.72,32S14.72,63.28,32,63.28S63.28,49.28,63.28,32"/>
	<g>
		<path class="st1" d="M30.64,44.99c-1.1,1.45-2.69,2.38-4.47,2.62c-1.78,0.24-3.56-0.22-5-1.32c-1.45-1.1-2.38-2.69-2.62-4.47
			c-0.25-1.78,0.22-3.56,1.33-5l6.14-8.12l7.27,5.52c0.19-0.2,0.39-0.4,0.59-0.58c0.43-0.36,0.88-0.68,1.35-0.97l-7.76-5.89
			L33.36,19c2.26-2.97,6.51-3.56,9.47-1.3c1.45,1.1,2.38,2.69,2.62,4.47c0.25,1.78-0.22,3.56-1.33,5.01l-3.01,4.05
			c1.19,0.09,2.31,0.4,3.34,0.87l2.23-2.99c1.62-2.13,2.31-4.75,1.95-7.38c-0.36-2.63-1.73-4.97-3.86-6.59
			c-4.37-3.33-10.64-2.47-13.97,1.92L17.31,34.87C15.7,37,15,39.62,15.37,42.25c0.36,2.63,1.73,4.97,3.86,6.59
			c1.76,1.34,3.85,2.04,6.02,2.04c0.45,0,0.91-0.03,1.37-0.09c2.43-0.33,4.6-1.53,6.15-3.34c-0.73-0.88-1.3-1.88-1.7-2.98
			L30.64,44.99z"/>
		<path class="st1" d="M40.35,32.79c-1.93,0-3.86,0.73-5.42,2.06c-1.81,1.58-2.85,3.88-2.85,6.29c0,4.56,3.71,8.27,8.27,8.27
			s8.27-3.71,8.27-8.27C48.62,36.54,44.91,32.79,40.35,32.79"/>
	</g>
</g>
</svg>
