<?xml version="1.0" encoding="utf-8"?>
<!-- Generator: Adobe Illustrator 27.2.0, SVG Export Plug-In . SVG Version: 6.00 Build 0)  -->
<svg version="1.1" id="Layer_1" xmlns="http://www.w3.org/2000/svg" xmlns:xlink="http://www.w3.org/1999/xlink" x="0px" y="0px"
	 viewBox="0 0 64 64" style="enable-background:new 0 0 64 64;" xml:space="preserve">
<style type="text/css">
	.st0{fill:#192857;}
	.st1{fill:#FFFFFF;}
</style>
<path class="st0" d="M63,31.98C63,14.85,49.11,0.96,31.98,0.96S0.96,14.85,0.96,31.98C0.96,49.11,14.85,63,31.98,63
	S63,49.11,63,31.98"/>
<path class="st1" d="M48.82,29.76c-1.58,0-2.86-1.28-2.86-2.86c0-1.58,1.28-2.86,2.86-2.86c1.58,0,2.86,1.28,2.86,2.86
	C51.68,28.48,50.4,29.76,48.82,29.76 M45.14,29.41c-1.02,1.37-1.91,2.91-2.96,4.27c-0.31,0.4-0.63,0.81-0.97,1.2
	c-0.11,0.13-0.25,0.22-0.37,0.35c-0.16,0.18-0.27,0.38-0.44,0.55c-0.17,0.16-0.35,0.3-0.52,0.47c-0.16,0.17-0.27,0.43-0.53,0.49
	c-0.08-0.15-0.04-0.34-0.03-0.5c0.02-0.49,0.09-1.02,0.09-1.56c0.01-1.45-0.01-2.87-0.12-4.28c-0.04-0.48-0.06-1.04-0.09-1.58
	c-0.01-0.19-0.06-0.43,0-0.5c0.01-0.02,0.02-0.04,0.05-0.04c1.39,0.38,3.41,0.78,5.13,0.38c0.22-0.05,0.43-0.15,0.65-0.17
	c0.27-0.02,0.47,0.07,0.7,0.08C45.58,28.86,45.35,29.13,45.14,29.41 M31.98,26.84c-1.58,0-2.86-1.28-2.86-2.86
	c0-1.58,1.28-2.86,2.86-2.86s2.86,1.28,2.86,2.86C34.84,25.56,33.56,26.84,31.98,26.84 M27.6,45.32c-1.58,0-2.86-1.28-2.86-2.86
	c0-1.58,1.28-2.86,2.86-2.86c1.58,0,2.86,1.28,2.86,2.86C30.46,44.04,29.18,45.32,27.6,45.32 M52.74,25.56
	c-0.7-0.77-1.37-1.26-2.58-1.53c-1.09-0.24-2.17-0.51-3.25-0.85c-0.51-0.16-1.04-0.33-1.62-0.44c-1.14-0.21-2.47-0.28-3.7-0.39
	c-0.65-0.06-1.13-0.19-1.58-0.47c-0.8-0.51-1.81-0.99-2.84-1.28c-0.59-0.16-1.19-0.16-1.84-0.21c-0.58-0.05-1.19-0.16-1.75-0.3
	c-0.52-0.13-1.01-0.36-1.58-0.47c-0.79-0.16-2-0.2-2.9-0.06c-0.6,0.09-1.23,0.16-1.81-0.03c-0.12-0.04-0.2-0.11-0.32-0.2
	c-0.11-0.08-0.28-0.11-0.35-0.2c-0.06-0.07-0.07-0.22-0.11-0.35c-0.04-0.12-0.12-0.2-0.15-0.29c-0.04-0.12-0.06-0.24-0.11-0.35
	c-0.05-0.11-0.1-0.21-0.14-0.3c-0.16-0.39-0.41-0.77-0.65-1.12c-0.12-0.17-0.27-0.31-0.43-0.47c-0.29-0.3-0.57-0.61-0.94-0.84
	c-0.09-0.05-0.18-0.11-0.27-0.17c-0.09-0.06-0.17-0.13-0.26-0.18c-0.21-0.11-0.45-0.13-0.65-0.24c-0.21-0.12-0.41-0.19-0.65-0.24
	c-0.28-0.06-0.54,0.01-0.82,0.01c-0.64,0.01-1.39,0.08-1.84,0.35c-0.17,0.1-0.36,0.21-0.58,0.32c-0.1,0.05-0.18,0.12-0.27,0.17
	c-0.2,0.1-0.42,0.17-0.61,0.27c-0.21,0.11-0.37,0.37-0.58,0.55c-0.22,0.19-0.38,0.37-0.53,0.59c-0.42,0.61-0.66,1.17-0.76,2.05
	c-0.02,0.16-0.06,0.32-0.08,0.49c-0.09,1.08,0.08,2.07,0.4,2.92c-0.94,0.53-1.86,0.85-2.54,1.61c-0.1,0.11-0.19,0.28-0.32,0.37
	c-0.21,0.13-0.44,0.21-0.64,0.32c-0.6,0.34-1.09,0.76-1.47,1.37c-0.24,0.38-0.42,0.83-0.62,1.28c-0.2,0.43-0.32,0.91-0.36,1.52
	c-0.05,0.61,0.03,1.19,0.3,1.59c0.13,0.2,0.32,0.33,0.43,0.53c0.1,0.2,0.15,0.44,0.24,0.7c0.84,2.35,2.63,3.65,4.56,4.92
	c0.19,0.13,0.36,0.27,0.55,0.4c0.38,0.24,0.85,0.41,1.17,0.73c0.16,0.15,0.27,0.34,0.41,0.53c0.29,0.37,0.7,0.58,1,0.9
	c0.16,0.16,0.32,0.32,0.49,0.47c0.33,0.31,0.61,0.59,0.92,0.96c0.07,0.08,0.15,0.18,0.23,0.24c0.11,0.08,0.21,0.1,0.27,0.2
	l0.39,0.58c0.09,0.15,0.02,0.24,0.01,0.49c0,0.14,0.04,0.29,0.03,0.38c-0.01,0.14-0.04,0.27-0.05,0.4c0,0.12,0.01,0.05,0.05,0.14
	c0.02,0.06,0.02,0.09,0.01,0.17c-0.01,0.24-0.05,0.53-0.08,0.81c-0.05,0.6-0.07,0.99-0.26,1.49c-0.1,0.25-0.13,0.48-0.08,0.73
	c0.06,0.28,0.16,0.48,0.12,0.74c-0.04,0.26-0.2,0.45-0.18,0.68c0.03,0.33,0.38,0.42,0.68,0.44c0.14,0.46-0.01,1.04,0,1.5h18.73
	c-0.02-0.46-0.16-0.77-0.26-1.15c-0.09-0.38-0.16-0.76-0.23-1.18c-0.1-0.58-0.23-1.15-0.35-1.76c-0.04-0.18-0.13-0.42-0.12-0.58
	c0-0.09,0.1-0.34,0.15-0.42c0.11-0.21,0.34-0.35,0.45-0.58c0.1-0.22,0.1-0.57,0.17-0.87c0.03-0.14,0.04-0.29,0.08-0.44
	c0.03-0.14,0.12-0.25,0.14-0.38c0.05-0.3,0.1-0.54,0.21-0.81c0.1-0.25,0.21-0.49,0.3-0.73c0.1-0.25,0.16-0.51,0.26-0.76
	c0.09-0.23,0.25-0.44,0.38-0.65c0.26-0.41,0.57-0.8,0.91-1.14c0.18-0.18,0.3-0.38,0.45-0.58c0.15-0.19,0.34-0.34,0.5-0.53
	c0.16-0.19,0.39-0.28,0.56-0.46c0.22-0.22,0.49-0.35,0.74-0.55c0.04-0.03,0.07-0.1,0.12-0.14c0.1-0.07,0.22-0.12,0.32-0.18
	c0.38-0.25,0.82-0.54,1.23-0.82c0.57-0.39,1.07-1.01,1.61-1.49c0.89-0.79,1.61-1.81,2.38-2.73c0.76-0.91,1.6-1.81,2.31-2.82
	c0.15-0.21,0.3-0.41,0.35-0.67C53.42,26.35,53.06,25.91,52.74,25.56"/>
</svg>
