<?xml version="1.0" encoding="utf-8"?>
<!-- Generator: Adobe Illustrator 27.2.0, SVG Export Plug-In . SVG Version: 6.00 Build 0)  -->
<svg version="1.1" id="Layer_1" xmlns="http://www.w3.org/2000/svg" xmlns:xlink="http://www.w3.org/1999/xlink" x="0px" y="0px"
	 viewBox="0 0 64 64" style="enable-background:new 0 0 64 64;" xml:space="preserve">
<style type="text/css">
	.st0{fill:#192857;}
	.st1{fill:#FFFFFF;}
</style>
<g>
	<path class="st0" d="M63.4,32C63.4,14.66,49.34,0.6,32,0.6S0.6,14.66,0.6,32c0,17.34,14.06,31.4,31.4,31.4S63.4,49.34,63.4,32"/>
	<path class="st1" d="M30.17,25.08c-0.18,0.39-0.44,0.72-0.8,1c-0.38,0.31-0.83,0.51-1.37,0.6c-0.54,0.09-0.99,0.11-0.99,0.11
		c-0.53,0.02-1.34,0.03-1.77,0.03c-0.43,0-0.79-0.44-0.79-0.98v-4c0-0.54,0.41-0.97,0.93-0.97c0.51,0,1.37,0,1.9,0.02
		c0,0,0.19,0.01,0.61,0.04c0.42,0.04,0.81,0.13,1.16,0.28c0.5,0.22,0.85,0.53,1.06,0.92c0.22,0.4,0.32,0.88,0.32,1.43
		C30.42,24.19,30.34,24.7,30.17,25.08 M44.53,47.19c0.54,0,0.71-0.35,0.38-0.77l-5.72-7.45c-0.33-0.42-0.34-1.12-0.02-1.55
		l5.29-7.22c0.32-0.43,0.14-0.79-0.4-0.79h-4.63c-0.53,0-1.24,0.36-1.56,0.79l-2.09,2.82c-0.32,0.43-0.85,0.44-1.18,0.01l-2.09-2.72
		c-0.32-0.43-0.22-1.01,0.23-1.3c0,0,1.47-0.94,2.23-1.99c0.76-1.06,1.15-2.42,1.15-4.12c0-1.19-0.23-2.18-0.7-2.96
		c-0.47-0.77-1.09-1.42-1.88-1.92c-0.78-0.49-1.61-0.81-2.52-0.96c-0.91-0.15-2.23-0.2-2.23-0.2c-0.54-0.01-1.41-0.03-1.95-0.03
		H19.9c-0.54,0-0.98,0.44-0.98,0.97v20.14c0,0.54,0.44,0.97,0.98,0.97h3.56c0.53,0,0.98-0.43,0.98-0.97v-6.15
		c0-0.54,0.44-0.98,0.98-0.98h0.03c0.54,0,1.24,0.36,1.56,0.78l4.35,5.79c0.33,0.43,0.33,1.13,0.01,1.57l-5.55,7.47
		c-0.32,0.43-0.14,0.78,0.39,0.78h4.82c0.54,0,1.23-0.35,1.55-0.78l2.16-2.96c0.32-0.44,0.84-0.44,1.17-0.01l2.23,2.98
		c0.32,0.43,1.03,0.78,1.56,0.78H44.53z"/>
</g>
</svg>
