<?xml version="1.0" encoding="utf-8"?>
<!-- Generator: Adobe Illustrator 27.2.0, SVG Export Plug-In . SVG Version: 6.00 Build 0)  -->
<svg version="1.1" id="Layer_1" xmlns="http://www.w3.org/2000/svg" xmlns:xlink="http://www.w3.org/1999/xlink" x="0px" y="0px"
	 viewBox="0 0 64 64" style="enable-background:new 0 0 64 64;" xml:space="preserve">
<style type="text/css">
	.st0{fill:#192857;}
	.st1{fill:#FFFFFF;}
</style>
<g>
	<path class="st0" d="M63.4,32C63.4,14.66,49.34,0.6,32,0.6S0.6,14.66,0.6,32S14.66,63.4,32,63.4S63.4,49.34,63.4,32"/>
	<g>
		<path class="st1" d="M19.29,22.35l5.12-4.57l-2.91-3.26l1.06-0.94c0.35-0.32,0.3-0.96-0.12-1.43c-0.42-0.47-1.05-0.6-1.41-0.28
			l-7.22,6.45c-0.36,0.32-0.3,0.96,0.12,1.43c0.42,0.47,1.06,0.6,1.41,0.28l1.05-0.94L19.29,22.35z"/>
		<path class="st1" d="M34.73,34.91l-2.59,2.37l-2.6-2.84l2.59-2.37L31,30.84l-2.59,2.37l-2.19-2.39l2.59-2.37L27.3,26.8l-2.59,2.37
			l-2.2-2.4l2.59-2.37l3.4-3.11l9.49,10.65L34.73,34.91L34.73,34.91z M45.24,45.92l0.03-0.03c0.33-0.3,0.33-0.84,0-1.21l-0.45-0.5
			c1.48-2.38,0.86-6.1-1.68-8.94l-10.4-11.65l-3.06-3.43l-1.33-1.49l1.37-1.22c0.3-0.27,0.26-0.81-0.1-1.22
			c-0.36-0.4-0.9-0.51-1.2-0.24L16.76,26.4c-0.3,0.27-0.26,0.82,0.1,1.22c0.36,0.4,0.9,0.51,1.2,0.24l1.32-1.18l1.33,1.49l3.06,3.43
			l10.4,11.65c2.56,2.87,6.23,3.9,8.77,2.65l0.43,0.48c0.33,0.37,0.87,0.43,1.2,0.14l0.03-0.03l5.58,5.83l0.26-0.23L45.24,45.92z"/>
	</g>
</g>
</svg>
