<?xml version="1.0" encoding="utf-8"?>
<!-- Generator: Adobe Illustrator 27.2.0, SVG Export Plug-In . SVG Version: 6.00 Build 0)  -->
<svg version="1.1" id="Layer_1" xmlns="http://www.w3.org/2000/svg" xmlns:xlink="http://www.w3.org/1999/xlink" x="0px" y="0px"
	 viewBox="0 0 64 64" style="enable-background:new 0 0 64 64;" xml:space="preserve">
<style type="text/css">
	.st0{fill:#192857;}
	.st1{fill:#FFFFFF;}
</style>
<path class="st0" d="M63,32C63,14.88,49.03,1,31.81,1C14.58,1,0.61,14.88,0.61,32c0,17.12,13.97,31,31.19,31
	C49.03,63,63,49.12,63,32"/>
<path class="st1" d="M25.01,25.67c-4.64,0-7.82,3.86-7.82,8.18c0,4.35,3.47,13.28,14.4,19.06c0.14,0.07,0.3,0.07,0.44,0
	c6.17-3.26,9.96-7.55,12.09-11.43c0-0.01,0.01-0.02,0.01-0.02l1.05-2.2c0-0.01,0.01-0.01,0.01-0.02c0.86-2.1,1.24-3.98,1.24-5.39
	c0-4.32-3.18-8.18-7.81-8.18c-3.61,0-5.93,2.48-6.8,3.61C30.94,28.15,28.62,25.67,25.01,25.67L25.01,25.67z"/>
<path class="st1" d="M17.37,25.77c0,2.51-2.05,4.54-4.57,4.54c-2.52,0-4.57-2.03-4.57-4.54s2.05-4.54,4.57-4.54
	C15.33,21.22,17.37,23.26,17.37,25.77"/>
<path class="st1" d="M29.59,17.64c0,2.85-2.33,5.16-5.19,5.16c-2.87,0-5.19-2.31-5.19-5.16s2.33-5.16,5.19-5.16
	C27.26,12.48,29.59,14.79,29.59,17.64"/>
<path class="st1" d="M44.61,17.64c0,2.85-2.33,5.16-5.19,5.16c-2.87,0-5.2-2.31-5.2-5.16s2.33-5.16,5.2-5.16
	C42.28,12.48,44.61,14.79,44.61,17.64"/>
<path class="st1" d="M46.34,25.77c0,2.51,2.05,4.54,4.57,4.54c2.52,0,4.57-2.03,4.57-4.54s-2.05-4.54-4.57-4.54
	C48.38,21.22,46.34,23.26,46.34,25.77"/>
</svg>
