<?xml version="1.0" encoding="utf-8"?>
<!-- Generator: Adobe Illustrator 27.2.0, SVG Export Plug-In . SVG Version: 6.00 Build 0)  -->
<svg version="1.1" id="Layer_1" xmlns="http://www.w3.org/2000/svg" xmlns:xlink="http://www.w3.org/1999/xlink" x="0px" y="0px"
	 viewBox="0 0 64 21.1" style="enable-background:new 0 0 64 21.1;" xml:space="preserve">
<style type="text/css">
	.st0{fill:#151F3D;}
</style>
<g>
	<path class="st0" d="M5.4,2.7c0.1-0.2,0.2-0.3,0.4-0.3S6,2.5,6,2.7l0,0H5.4z M5.5,3.8c0.4,0,0.6-0.2,0.8-0.6L6.1,3.2
		C6,3.4,5.8,3.6,5.6,3.6C5.3,3.6,5.2,3.4,5.3,3c0-0.1,0-0.1,0-0.1h1c0.1-0.5-0.2-0.7-0.6-0.7C5.4,2.2,5,2.5,4.9,3
		C4.8,3.5,5,3.8,5.5,3.8z"/>
	<path class="st0" d="M3.9,2.2c0.2-0.4,0.5-1,1.1-0.8c0.2,0.1,0.5,0.3,0.6,0.1C5.8,1.2,5,1.1,4.5,1.2c-0.5,0.2-1,0.4-1.4,2
		C3,3.5,2.9,3.7,2.8,3.7v0.1h0.7c0,0-0.1,0-0.1-0.2s0.2-1.2,0.6-1.2c0.4,0,0.1,0.7,0,1C4.1,3.7,4,3.8,4.2,3.8h0.5
		c0,0-0.2-0.2-0.1-0.5C4.7,3.1,5.3,1.8,3.9,2.2"/>
	<g transform="translate(5 8.474)">
		
			<image style="overflow:visible;enable-background:new    ;" width="17" height="21" xlink:href="15D7A64901DBAC66.png"  transform="matrix(0.1714 0 0 0.1714 -4.1771 -7.514)">
		</image>
	</g>
	<g transform="translate(534 28.474)">
		
			<image style="overflow:visible;enable-background:new    ;" width="25" height="13" xlink:href="15D7A64901DBAC6A.png"  transform="matrix(0.2112 0 0 0.2112 -475.92 -25.2868)">
		</image>
	</g>
	<path class="st0" d="M61.9,1.2c0.3,0,0.6,0.3,0.6,0.6c0,0.3-0.3,0.6-0.6,0.6L61,4.6c-0.1,0.3-0.4,0.5-0.7,0.5
		c-0.4,0-0.8-0.3-0.8-0.8c0-0.2,0.1-0.4,0.2-0.5L61.4,2c0-0.1-0.1-0.2-0.1-0.3C61.3,1.4,61.6,1.2,61.9,1.2 M16.3,6.1
		c-0.2,0-0.4,0-0.6-0.1s-0.3-0.2-0.4-0.4S15,5.3,15,5.1c0-0.2,0-0.4,0-0.6c0.1-0.3,0.2-0.5,0.3-0.7c0.1-0.2,0.3-0.4,0.5-0.6
		C16,3,16.3,2.8,16.5,2.7c0.2-0.1,0.5-0.1,0.8-0.1c0.2,0,0.4,0,0.6,0.1s0.3,0.2,0.4,0.3c0.1,0.1,0.2,0.3,0.2,0.5s0,0.4,0,0.6h-2.3
		c0,0.2-0.1,0.3-0.1,0.5c0,0.2,0,0.3,0.1,0.4c0,0.1,0.1,0.2,0.2,0.3c0.1,0.1,0.2,0.1,0.3,0.1c0.1,0,0.2,0,0.3-0.1
		c0.2-0.1,0.5-0.2,0.6-0.4c0.1-0.1,0.2-0.2,0.2-0.3l0.5,0.1c-0.1,0.2-0.2,0.4-0.4,0.5c-0.2,0.2-0.3,0.3-0.5,0.4
		c-0.2,0.1-0.4,0.2-0.6,0.3C16.7,6.1,16.5,6.1,16.3,6.1z M17.4,3.7c0-0.1,0-0.2,0-0.3c0-0.1,0-0.2-0.1-0.2c0-0.1-0.1-0.1-0.1-0.1
		c-0.1,0-0.1,0-0.2,0c-0.1,0-0.1,0-0.2,0c-0.1,0-0.1,0.1-0.2,0.1c-0.1,0.1-0.1,0.1-0.2,0.2c-0.1,0.1-0.1,0.2-0.1,0.3H17.4z M25.2,3
		c-0.1,0-0.2,0-0.3,0.1c-0.1,0.1-0.2,0.1-0.3,0.2c-0.1,0.1-0.2,0.2-0.2,0.3c-0.1,0.1-0.1,0.2-0.1,0.4c0,0.2-0.1,0.3-0.1,0.5
		c0,0.2,0,0.3,0.1,0.4c0,0.1,0.1,0.2,0.2,0.3s0.2,0.1,0.3,0.1c0.1,0,0.2,0,0.3-0.1c0.1-0.1,0.2-0.1,0.3-0.2c0.1-0.1,0.2-0.2,0.3-0.3
		c0.1-0.1,0.2-0.2,0.2-0.3l0.5,0.1c-0.1,0.2-0.2,0.4-0.4,0.6c-0.1,0.2-0.3,0.3-0.5,0.4S25.1,5.9,24.9,6s-0.4,0.1-0.6,0.1
		c-0.2,0-0.4,0-0.6-0.1s-0.3-0.2-0.4-0.4s-0.2-0.3-0.2-0.5c0-0.2,0-0.4,0-0.6c0.1-0.2,0.2-0.5,0.3-0.7c0.1-0.2,0.3-0.4,0.5-0.6
		c0.2-0.2,0.4-0.3,0.7-0.4s0.5-0.1,0.7-0.1c0.2,0,0.4,0,0.5,0.1c0.1,0,0.3,0.1,0.4,0.2c0.1,0.1,0.2,0.2,0.2,0.3s0,0.2,0,0.3
		c0,0.1,0,0.1-0.1,0.2c0,0-0.1,0.1-0.2,0.1c-0.1,0-0.2,0.1-0.2,0.1c-0.1,0-0.1,0-0.2,0c-0.1,0-0.1,0-0.2,0c0,0-0.1,0-0.1-0.1
		c0,0-0.1-0.1-0.1-0.1c0,0,0-0.1,0-0.2c0,0,0-0.1,0-0.2c0,0,0-0.1,0-0.1c0,0,0-0.1-0.1-0.1C25.3,3,25.3,3,25.2,3 M27.1,6h-1L27,2.7
		h1C27.9,2.7,27.1,6,27.1,6z M27.2,1.6c0-0.1,0-0.1,0.1-0.2s0.1-0.1,0.2-0.2s0.1-0.1,0.2-0.1c0.1,0,0.1,0,0.2,0c0.1,0,0.1,0,0.2,0
		c0.1,0,0.1,0.1,0.1,0.1c0,0,0.1,0.1,0.1,0.2c0,0.1,0,0.1,0,0.2s0,0.1-0.1,0.2c0,0.1-0.1,0.1-0.2,0.2C28,2,27.9,2,27.9,2.1
		c-0.1,0-0.1,0-0.2,0s-0.1,0-0.2,0C27.4,2,27.3,2,27.3,2c0,0-0.1-0.1-0.1-0.2C27.2,1.7,27.2,1.7,27.2,1.6z M32.2,6.1
		c-0.2,0-0.5,0-0.6-0.1c-0.2-0.1-0.3-0.2-0.5-0.4s-0.2-0.3-0.2-0.5c0-0.2,0-0.4,0-0.6c0.1-0.3,0.2-0.5,0.3-0.7s0.3-0.4,0.5-0.6
		C32,3,32.2,2.8,32.4,2.7c0.2-0.1,0.5-0.1,0.8-0.1c0.2,0,0.4,0,0.6,0.1c0.2,0.1,0.3,0.2,0.4,0.3c0.1,0.1,0.2,0.3,0.2,0.5
		c0,0.2,0,0.4,0,0.6H32C32,4.2,32,4.4,32,4.6C32,4.7,32,4.9,32,5s0.1,0.2,0.2,0.3c0.1,0.1,0.2,0.1,0.3,0.1c0.1,0,0.2,0,0.3-0.1
		c0.2-0.1,0.5-0.2,0.6-0.4c0.1-0.1,0.2-0.2,0.2-0.3l0.5,0.1C34.2,5,34,5.1,33.9,5.3c-0.2,0.2-0.3,0.3-0.5,0.4
		C33.2,5.8,33,5.9,32.8,6C32.6,6.1,32.4,6.1,32.2,6.1L32.2,6.1z M33.3,3.7c0-0.1,0-0.2,0-0.3c0-0.1,0-0.2-0.1-0.2s-0.1-0.1-0.2-0.1
		C33,3,32.9,3,32.9,3c-0.1,0-0.1,0-0.2,0c-0.1,0-0.1,0.1-0.2,0.1c-0.1,0.1-0.1,0.1-0.2,0.2c-0.1,0.1-0.1,0.2-0.1,0.3H33.3L33.3,3.7z
		 M45,6.1c-0.3,0-0.5,0-0.7-0.1s-0.4-0.2-0.5-0.4c-0.1-0.2-0.2-0.3-0.2-0.5s0-0.4,0-0.7c0.1-0.2,0.2-0.5,0.3-0.7
		c0.3-0.4,0.7-0.8,1.2-0.9c0.2-0.1,0.5-0.1,0.8-0.1c0.3,0,0.5,0,0.7,0.1c0.2,0.1,0.4,0.2,0.5,0.4c0.1,0.2,0.2,0.3,0.2,0.5
		c0,0.2,0,0.4,0,0.6C47.3,4.5,47.2,4.8,47,5c-0.2,0.2-0.3,0.4-0.5,0.6c-0.2,0.2-0.4,0.3-0.7,0.4C45.5,6,45.3,6.1,45,6.1 M45.2,5.7
		c0.1,0,0.2,0,0.3-0.1c0.1-0.1,0.2-0.2,0.3-0.2C45.9,5.2,45.9,5.1,46,5c0.1-0.1,0.1-0.3,0.2-0.4c0-0.2,0.1-0.4,0.1-0.6
		c0-0.2,0-0.3,0-0.5s-0.1-0.2-0.2-0.3C46,3.1,45.9,3,45.7,3c-0.1,0-0.2,0-0.2,0.1c-0.1,0.1-0.2,0.2-0.3,0.2C45.1,3.5,45,3.6,45,3.7
		c-0.1,0.1-0.1,0.3-0.2,0.4c0,0.2-0.1,0.4-0.1,0.6c0,0.2,0,0.4,0,0.5s0.1,0.3,0.2,0.3C45,5.6,45.1,5.7,45.2,5.7 M55.6,6.1
		c-0.2,0-0.5,0-0.6-0.1s-0.3-0.2-0.5-0.4s-0.2-0.3-0.2-0.5c0-0.2,0-0.4,0-0.6c0.1-0.3,0.2-0.5,0.3-0.7s0.3-0.4,0.5-0.6
		c0.2-0.2,0.4-0.3,0.7-0.4c0.2-0.1,0.5-0.1,0.8-0.1c0.2,0,0.4,0,0.6,0.1c0.2,0.1,0.3,0.2,0.4,0.3c0.1,0.1,0.2,0.3,0.2,0.5
		c0,0.2,0,0.4,0,0.6h-2.3c0,0.2-0.1,0.3-0.1,0.5c0,0.2,0,0.3,0.1,0.4s0.1,0.2,0.2,0.3c0.1,0.1,0.2,0.1,0.3,0.1c0.1,0,0.2,0,0.3-0.1
		c0.2-0.1,0.5-0.2,0.6-0.4c0.1-0.1,0.2-0.2,0.2-0.3l0.5,0.1c-0.1,0.2-0.2,0.4-0.4,0.5c-0.2,0.2-0.3,0.3-0.5,0.4
		c-0.2,0.1-0.4,0.2-0.6,0.3C56,6.1,55.8,6.1,55.6,6.1z M56.7,3.7c0-0.1,0-0.2,0-0.3c0-0.1,0-0.2-0.1-0.2s-0.1-0.1-0.2-0.1
		c-0.1,0-0.1,0-0.2,0s-0.1,0-0.2,0c-0.1,0-0.1,0.1-0.2,0.1c-0.1,0.1-0.1,0.1-0.2,0.2c-0.1,0.1-0.1,0.2-0.1,0.3H56.7L56.7,3.7z"/>
	<path class="st0" d="M10.6,2.5L11.2,6h0.5l2.6-3.5h0l-0.5,2.4c-0.1,0.6-0.1,0.7-0.8,0.8L12.8,6H15l0.1-0.4c-0.4,0-0.6-0.2-0.5-0.6
		l0.7-3c0.1-0.4,0.3-0.5,0.8-0.5L16.2,1h-1.8L12,4.6h0L11.5,1L8.1,1C7.3,1,6.6,1.6,6.6,2.3s0.6,1.3,1.3,1.3s1.4-0.5,0.9-1
		c-0.2-0.2-0.8,0-1,0.4C6.8,3.2,7,1.4,8.4,1.4c1.6,0,1.7,0.2,1.6,0.6C9.8,3.2,8.9,7.1,6.3,7.1c-0.7,0-1.5-0.3-1.5-1.4
		c0-0.6,0.5-1.1,1.2-1C6.3,5.2,7.3,5.5,7.5,5c0.2-0.5-0.4-0.9-1.2-0.9c-0.8,0-2,0.5-2,1.7S5,7.6,6.3,7.6C7.6,7.6,9.5,7.3,10.6,2.5
		 M38.7,3.2c0.8,0.5,2,1.3,1.5,2.4c-0.4,1-1.1,1.5-2.5,1.5c-1.1,0-2.4-0.5-2.4-1.5c0-0.7,0.3-1.4,1.2-1.4s1.2,0.5,1.2,0.8
		s-0.2,0.5-0.5,0.5c-0.3,0-0.4-0.1-0.5-0.4C36.6,4.9,36,4.9,36,5.4c0,0.7,0.9,1.1,1.9,1.1c0.6,0,1.4-0.3,1.4-1
		c0-0.7-0.8-1.4-1.5-1.7c-1.8-0.7-1.5-3.1,1.1-3.1c1.5,0,1.9,0.8,1.9,1.2s-0.3,0.8-0.8,0.8s-0.7-0.3-0.7-0.6c0-0.3,0.4-0.6,0.7-0.4
		c-0.1-0.2-0.2-0.5-1.1-0.5s-1.2,0.6-1.2,0.9C37.6,2.5,37.9,2.8,38.7,3.2 M58.3,2.2c-0.3,0-0.5-0.2-0.5-0.5s0.2-0.5,0.5-0.5
		s0.5,0.2,0.5,0.5C58.7,2,58.5,2.2,58.3,2.2z M58.3,2.4c0.3,0,0.6-0.3,0.6-0.6s-0.3-0.6-0.6-0.6c-0.3,0-0.6,0.3-0.6,0.6
		C57.7,2.1,57.9,2.4,58.3,2.4z M58.4,1.8c0.1,0,0.2-0.1,0.2-0.2c0-0.2-0.1-0.2-0.3-0.2H58v0.7h0.1V1.8h0.1l0.2,0.3h0.2L58.4,1.8
		L58.4,1.8z M58.2,1.7V1.5h0.2c0.1,0,0.2,0,0.2,0.1c0,0.1,0,0.1-0.1,0.1C58.3,1.7,58.2,1.7,58.2,1.7z M22.5,6h-1l0.9-3.3h1L22.5,6z
		 M22.7,1.6c0-0.1,0-0.1,0.1-0.2s0.1-0.1,0.2-0.2s0.1-0.1,0.2-0.1c0.1,0,0.1,0,0.2,0c0.1,0,0.1,0,0.2,0c0.1,0,0.1,0.1,0.1,0.1
		c0,0,0.1,0.1,0.1,0.2c0,0.1,0,0.1,0,0.2s0,0.1-0.1,0.2c0,0.1-0.1,0.1-0.2,0.2c-0.1,0-0.1,0.1-0.2,0.1c-0.1,0-0.1,0-0.2,0
		s-0.1,0-0.2,0C22.8,2,22.8,2,22.7,2c0,0-0.1-0.1-0.1-0.2C22.6,1.7,22.6,1.7,22.7,1.6z M35.8,7.8h0.7c0.4,0,0.7,0.2,0.7,0.6l0,0
		c0,0.4-0.3,0.6-0.7,0.6h-0.2v0.5h-0.5L35.8,7.8L35.8,7.8z M36.5,8.7c0.2,0,0.3-0.1,0.3-0.2l0,0c0-0.1-0.1-0.2-0.3-0.2h-0.2v0.5
		C36.2,8.7,36.5,8.7,36.5,8.7z M39.2,7.8h0.5v0.6h0.6V7.8h0.5v1.7h-0.5V8.9h-0.6v0.7h-0.5V7.8z M43.5,7.8H44l0.7,1.7h-0.5L44,9.2
		h-0.6l-0.1,0.3h-0.5L43.5,7.8L43.5,7.8z M43.9,8.9l-0.2-0.5l-0.2,0.5H43.9z M46.7,7.8h0.8c0.3,0,0.4,0.1,0.5,0.2
		c0.1,0.1,0.2,0.2,0.2,0.4v0c0,0.3-0.1,0.4-0.3,0.5l0.4,0.6h-0.5L47.4,9h-0.2v0.5h-0.5L46.7,7.8L46.7,7.8z M47.5,8.6
		c0.2,0,0.2-0.1,0.2-0.2l0,0c0-0.1-0.1-0.2-0.2-0.2h-0.3v0.4L47.5,8.6L47.5,8.6z M50.3,7.8h0.5l0.4,0.7l0.4-0.7h0.5v1.7h-0.5v-1
		l-0.4,0.7h0l-0.4-0.7v1h-0.5L50.3,7.8z M54.8,7.8h0.5L56,9.6h-0.5l-0.1-0.3h-0.7l-0.1,0.3h-0.5L54.8,7.8z M55.2,8.9L55,8.4
		l-0.2,0.5H55.2L55.2,8.9z M57.9,8.7L57.9,8.7c0-0.5,0.4-0.9,0.9-0.9c0.3,0,0.6,0.2,0.7,0.4l-0.3,0.3c-0.1-0.1-0.2-0.2-0.4-0.2
		c-0.2,0-0.4,0.2-0.4,0.5l0,0c0,0.3,0.2,0.5,0.4,0.5c0.2,0,0.3-0.1,0.4-0.2l0.3,0.3c-0.2,0.2-0.4,0.4-0.7,0.4
		C58.3,9.6,57.9,9.2,57.9,8.7 M62.1,8.9l-0.6-1.1H62l0.3,0.6l0.3-0.6h0.5l-0.6,1.1v0.6h-0.5L62.1,8.9z M29.9,3.8c0-0.1,0-0.2,0-0.2
		s0-0.1,0-0.2c0,0,0-0.1-0.1-0.1c0,0-0.1,0-0.1,0c0,0-0.1,0-0.1,0c-0.1,0-0.1,0-0.2,0.1c-0.1,0-0.1,0.1-0.2,0.1
		c-0.1,0-0.1,0.1-0.2,0.2L28.3,6h-1l0.9-3.3h1L29.1,3c0.2-0.1,0.4-0.2,0.5-0.2c0.2,0,0.4-0.1,0.5-0.1c0.1,0,0.2,0,0.4,0.1
		c0.1,0,0.2,0.1,0.3,0.2C30.9,3.1,31,3.2,31,3.3c0,0.1,0,0.2,0,0.4L30.3,6h-1L29.9,3.8z M20.4,5.8c-0.1,0.1-0.3,0.1-0.4,0.2
		s-0.3,0.1-0.4,0.1c-0.1,0-0.2,0-0.4-0.1c-0.2-0.1-0.4-0.2-0.5-0.4c-0.1-0.1-0.1-0.2-0.1-0.3c0-0.1,0-0.3,0-0.4c0-0.1,0-0.3,0.1-0.4
		c0-0.1,0.1-0.3,0.2-0.4c0.1-0.1,0.2-0.3,0.3-0.4s0.2-0.2,0.4-0.3C19.5,3.1,19.6,3,19.8,3s0.3-0.1,0.5-0.2s0.3-0.1,0.5-0.1
		c0.1,0,0.2,0,0.3,0s0.1,0,0.2,0.1l0.4-1.6h1L21.3,6h-1C20.3,6,20.4,5.8,20.4,5.8z M20.9,3.8c0-0.1,0-0.2,0-0.3c0-0.1,0-0.2-0.1-0.2
		c0-0.1-0.1-0.1-0.1-0.1c-0.1,0-0.1,0-0.2,0c-0.1,0-0.2,0-0.3,0.1c-0.1,0.1-0.2,0.1-0.3,0.2c-0.1,0.1-0.2,0.2-0.2,0.4
		c-0.1,0.1-0.1,0.3-0.2,0.5c0,0.2-0.1,0.3-0.1,0.5c0,0.2,0,0.3,0,0.4c0,0.1,0.1,0.2,0.2,0.3s0.2,0.1,0.3,0.1c0,0,0.1,0,0.1,0
		c0,0,0.1,0,0.1-0.1c0.1,0,0.2-0.1,0.3-0.2C20.5,5.3,20.9,3.8,20.9,3.8z M47.9,2.8h1L48.8,3c0.1-0.1,0.3-0.2,0.5-0.2
		s0.3-0.1,0.5-0.1c0.2,0,0.4,0,0.5,0.1c0.2,0.1,0.3,0.2,0.3,0.3c0.1,0.1,0.1,0.3,0.2,0.5c0,0.2,0,0.4-0.1,0.6
		c-0.1,0.3-0.2,0.5-0.3,0.7c-0.1,0.2-0.3,0.4-0.5,0.6c-0.2,0.2-0.4,0.3-0.6,0.4c-0.2,0.1-0.5,0.1-0.7,0.1c-0.1,0-0.2,0-0.3,0
		c-0.1,0-0.2,0-0.3,0l-0.3,1.3h-1L47.9,2.8z M48.3,5.1c0,0.1,0,0.2,0,0.2c0,0.1,0,0.1,0.1,0.2c0,0.1,0.1,0.1,0.2,0.1
		c0.1,0,0.2,0,0.2,0c0.1,0,0.2,0,0.3-0.1c0.1-0.1,0.2-0.1,0.3-0.2c0.1-0.1,0.2-0.2,0.2-0.4c0.1-0.1,0.1-0.3,0.2-0.4
		c0.1-0.2,0.1-0.4,0.1-0.6c0-0.2,0-0.3,0-0.4c0-0.1-0.1-0.2-0.1-0.2c-0.1,0-0.1-0.1-0.2-0.1c-0.1,0-0.1,0-0.2,0
		c-0.1,0-0.1,0-0.2,0.1c-0.1,0-0.1,0.1-0.2,0.1c-0.1,0-0.1,0.1-0.2,0.2C48.7,3.7,48.3,5.1,48.3,5.1z M51.3,2.8h1L52.2,3
		c0.1-0.1,0.3-0.2,0.5-0.2s0.3-0.1,0.5-0.1c0.2,0,0.4,0,0.5,0.1C53.9,2.9,54,3,54.1,3.2c0.1,0.1,0.1,0.3,0.2,0.5
		c0,0.2,0,0.4-0.1,0.6C54.1,4.5,54,4.7,53.9,5c-0.1,0.2-0.3,0.4-0.5,0.6c-0.2,0.2-0.4,0.3-0.6,0.4C52.5,6,52.3,6.1,52,6.1
		c-0.1,0-0.2,0-0.3,0c-0.1,0-0.2,0-0.3,0l-0.3,1.3h-1L51.3,2.8z M51.7,5.1c0,0.1,0,0.2,0,0.2c0,0.1,0,0.1,0.1,0.2
		c0,0.1,0.1,0.1,0.2,0.1c0.1,0,0.2,0,0.2,0c0.1,0,0.2,0,0.3-0.1c0.1-0.1,0.2-0.1,0.3-0.2c0.1-0.1,0.2-0.2,0.2-0.4
		C52.9,4.9,53,4.7,53,4.6c0.1-0.2,0.1-0.4,0.1-0.6c0-0.2,0-0.3,0-0.4c0-0.1-0.1-0.2-0.1-0.2c-0.1,0-0.1-0.1-0.2-0.1
		c-0.1,0-0.1,0-0.2,0c-0.1,0-0.1,0-0.2,0.1c-0.1,0-0.1,0.1-0.2,0.1c-0.1,0-0.1,0.1-0.2,0.2C52.1,3.7,51.7,5.1,51.7,5.1z"/>
	<path class="st0" d="M47.9,2.8h1L48.8,3c0.1-0.1,0.3-0.2,0.5-0.2s0.3-0.1,0.5-0.1c0.2,0,0.4,0,0.5,0.1c0.2,0.1,0.3,0.2,0.3,0.3
		c0.1,0.1,0.1,0.3,0.2,0.5c0,0.2,0,0.4-0.1,0.6c-0.1,0.3-0.2,0.5-0.3,0.7c-0.1,0.2-0.3,0.4-0.5,0.6c-0.2,0.2-0.4,0.3-0.6,0.4
		c-0.2,0.1-0.5,0.1-0.7,0.1c-0.1,0-0.2,0-0.3,0c-0.1,0-0.2,0-0.3,0l-0.3,1.3h-1L47.9,2.8z M48.3,5.1c0,0.1,0,0.2,0,0.2
		c0,0.1,0,0.1,0.1,0.2c0,0.1,0.1,0.1,0.2,0.1c0.1,0,0.2,0,0.2,0c0.1,0,0.2,0,0.3-0.1c0.1-0.1,0.2-0.1,0.3-0.2
		c0.1-0.1,0.2-0.2,0.2-0.4c0.1-0.1,0.1-0.3,0.2-0.4c0.1-0.2,0.1-0.4,0.1-0.6c0-0.2,0-0.3,0-0.4c0-0.1-0.1-0.2-0.1-0.2
		c-0.1,0-0.1-0.1-0.2-0.1c-0.1,0-0.1,0-0.2,0c-0.1,0-0.1,0-0.2,0.1c-0.1,0-0.1,0.1-0.2,0.1c-0.1,0-0.1,0.1-0.2,0.2
		C48.7,3.7,48.3,5.1,48.3,5.1z M51.3,2.8h1L52.2,3c0.1-0.1,0.3-0.2,0.5-0.2s0.3-0.1,0.5-0.1c0.2,0,0.4,0,0.5,0.1
		C53.9,2.9,54,3,54.1,3.2c0.1,0.1,0.1,0.3,0.2,0.5c0,0.2,0,0.4-0.1,0.6C54.1,4.5,54,4.7,53.9,5c-0.1,0.2-0.3,0.4-0.5,0.6
		c-0.2,0.2-0.4,0.3-0.6,0.4C52.5,6,52.3,6.1,52,6.1c-0.1,0-0.2,0-0.3,0c-0.1,0-0.2,0-0.3,0l-0.3,1.3h-1L51.3,2.8z M51.7,5.1
		c0,0.1,0,0.2,0,0.2c0,0.1,0,0.1,0.1,0.2c0,0.1,0.1,0.1,0.2,0.1c0.1,0,0.2,0,0.2,0c0.1,0,0.2,0,0.3-0.1c0.1-0.1,0.2-0.1,0.3-0.2
		c0.1-0.1,0.2-0.2,0.2-0.4C52.9,4.9,53,4.7,53,4.6c0.1-0.2,0.1-0.4,0.1-0.6c0-0.2,0-0.3,0-0.4c0-0.1-0.1-0.2-0.1-0.2
		c-0.1,0-0.1-0.1-0.2-0.1c-0.1,0-0.1,0-0.2,0c-0.1,0-0.1,0-0.2,0.1c-0.1,0-0.1,0.1-0.2,0.1c-0.1,0-0.1,0.1-0.2,0.2
		C52.1,3.7,51.7,5.1,51.7,5.1z M42.7,3.9c0-0.2,0-0.3,0-0.4s-0.1-0.1-0.2-0.1c0,0-0.1,0-0.2,0c-0.1,0-0.1,0-0.2,0.1S42,3.5,42,3.6
		c-0.1,0-0.2,0.1-0.2,0.1l-0.6,2.4h-1l1.3-4.8l1,0l-0.5,1.8C42,3,42.1,3,42.2,2.9c0.1,0,0.2-0.1,0.3-0.1c0.1,0,0.2,0,0.3-0.1
		c0.1,0,0.2,0,0.3,0c0.1,0,0.2,0,0.3,0.1s0.2,0.1,0.2,0.2c0.1,0.1,0.1,0.2,0.1,0.3s0,0.2,0,0.4l-0.6,2.3h-1L42.7,3.9L42.7,3.9z"/>
</g>
</svg>
