<?xml version="1.0" encoding="utf-8"?>
<!-- Generator: Adobe Illustrator 27.2.0, SVG Export Plug-In . SVG Version: 6.00 Build 0)  -->
<svg version="1.1" id="Layer_1" xmlns="http://www.w3.org/2000/svg" xmlns:xlink="http://www.w3.org/1999/xlink" x="0px" y="0px"
	 viewBox="0 0 256 112" style="enable-background:new 0 0 256 112;" xml:space="preserve">
<style type="text/css">
	.st0{fill:#FFFFFF;}
	.st1{filter:url(#Adobe_OpacityMaskFilter);}
	.st2{mask:url(#b_00000031189622765826347610000005989503590841560988_);fill:#FFFFFF;}
	.st3{filter:url(#Adobe_OpacityMaskFilter_00000160869993148466112370000000951272810960835993_);}
	.st4{mask:url(#d_00000031910041472253130400000012042498651187308686_);fill:#FFFFFF;}
</style>
<g>
	<path class="st0" d="M35.02,15.49c0.47-1.4,1.1-2.38,2.52-2.38c1.51,0,1.87,1.01,1.62,2.04l-0.08,0.34
		C39.08,15.49,35.02,15.49,35.02,15.49z M35.62,23.47c2.6,0,4.13-1.63,5.38-4l-0.94-0.43c-0.78,1.17-2.09,2.96-3.69,2.96
		c-2.43,0-2.62-2.04-2.09-4.26c0.09-0.39,0.19-0.69,0.29-0.92h7.27c0.84-3.53-1.14-5.04-3.98-5.04c-3,0-5.71,2.02-6.59,5.71
		C30.5,20.75,32,23.47,35.62,23.47z"/>
	<path class="st0" d="M24.62,11.95c1.28-2.71,3.57-7.13,7.7-5.42c1.14,1,3.28,2.28,4.42,0.43c1.14-1.85-4.42-3.14-8.13-1.85
		c-3.46,1.2-7.27,2.71-9.98,14.12c-0.43,1.57-1.14,3.35-1.85,3.35v0.64h5.28c0-0.29-0.43-0.14-0.43-1.64c0-1.5,1.07-8.49,4.56-8.49
		c2.78,0,0.86,4.85,0.14,7.2c-0.71,2.35-1.07,2.92,0.21,2.92h3.56c0,0-1.28-1.28-0.57-3.21C30.25,18.08,34.17,8.74,24.62,11.95"/>
	<g transform="translate(5 8.474)">
		<defs>
			<filter id="Adobe_OpacityMaskFilter" filterUnits="userSpaceOnUse" x="-2.87" y="-4.34" width="21.53" height="23.6">
				<feColorMatrix  type="matrix" values="1 0 0 0 0  0 1 0 0 0  0 0 1 0 0  0 0 0 1 0"/>
			</filter>
		</defs>
		
			<mask maskUnits="userSpaceOnUse" x="-2.87" y="-4.34" width="21.53" height="23.6" id="b_00000031189622765826347610000005989503590841560988_">
			<g class="st1">
				<rect x="-2.87" y="-4.34" class="st0" width="21.53" height="23.6"/>
			</g>
		</mask>
		<path class="st2" d="M11.8-1.68c3.45,1.14,4.37,0.65,4.37-0.12C16.17-2.73,14.9-3.59,11.8-1.68 M11.92,19.26
			c-11.86,0-12.01-9.15-6.88-17.35C5.64,0.93,6.36,0.02,7.17-0.8C5.78-1.39,4.31-1.94,2.11-1.98C-2.73-2.05-1.33,1.54-0.16,1.1
			C0.2,0.59,0.57-0.07,1.82-0.07s1.76,0.66,1.76,1.54c0,0.88-0.8,1.83-2.71,1.83s-3.73-0.66-3.73-3.73c0-3.07,5.42-5.42,11.64-2.71
			l0.93,0.4c4.43-2.56,8.95-1.17,8.95,0.48c0,1.61-1.17,2.93-5.79,2.93c-1.06,0.01-2.11-0.15-3.13-0.45
			c-5.82,6.08-4.23,17.3,2.25,17.3"/>
	</g>
</g>
<g>
	<g transform="translate(534 28.474)">
		<defs>
			
				<filter id="Adobe_OpacityMaskFilter_00000012467514829094839920000006371931276506892688_" filterUnits="userSpaceOnUse" x="-321.53" y="35.97" width="35.11" height="17.51">
				<feColorMatrix  type="matrix" values="1 0 0 0 0  0 1 0 0 0  0 0 1 0 0  0 0 0 1 0"/>
			</filter>
		</defs>
		
			<mask maskUnits="userSpaceOnUse" x="-321.53" y="35.97" width="35.11" height="17.51" id="d_00000031910041472253130400000012042498651187308686_">
			<g style="filter:url(#Adobe_OpacityMaskFilter_00000012467514829094839920000006371931276506892688_);">
				<rect x="-321.53" y="35.97" class="st0" width="35.11" height="17.51"/>
			</g>
		</mask>
		<path class="st4" d="M-297.13,35.97c-1.81,4.5-3.92,9.76-3.9,9.7c-0.57,1.9-2.12,4.17-6.27,4.17c-3.79,0-6.87-3.07-6.87-6.85
			c0-1.82,0.7-3.47,2-4.77l2.19-2.25h-11.56c0,9.67,7.86,17.51,17.55,17.51c9.69,0,17.55-7.84,17.55-17.51L-297.13,35.97
			L-297.13,35.97z"/>
	</g>
	<path class="st0" d="M238.39,49.24c2.33,0,4.22,1.88,4.22,4.21c0,2.33-2.03,4.22-4.36,4.22l-6.46,16.11
		c-0.7,2.32-2.54,3.29-5.09,3.29c-3.11,0-5.63-2.51-5.63-5.62c0-1.55,0.63-2.89,1.65-3.91l11.92-12.23
		c-0.3-0.58-0.47-1.22-0.48-1.87C234.16,51.12,236.06,49.24,238.39,49.24"/>
	<path class="st0" d="M212.48,56.63c-1.93,0-3.27-1.44-3.27-3.46c0-2.03,1.34-3.48,3.27-3.48c1.89,0,3.25,1.45,3.25,3.48
		C215.73,55.19,214.37,56.63,212.48,56.63z M212.48,57.7c2.43,0,4.42-2.04,4.42-4.54c0-2.51-1.99-4.56-4.42-4.56
		c-2.47,0-4.44,2.05-4.44,4.56C208.04,55.67,210.01,57.7,212.48,57.7z M213.52,53.56c0.84-0.06,1.3-0.42,1.3-1.33
		c0-1.15-0.6-1.5-1.85-1.5h-2.32v4.9h1v-2.07h0.8l1.07,2.07h1.15L213.52,53.56L213.52,53.56z M211.66,52.83v-1.35h1.09
		c0.46,0,1.15-0.05,1.15,0.61c0,0.61-0.37,0.75-0.91,0.74H211.66z"/>
</g>
<path class="st0" d="M76.74,15.04l3.71,25.16h3.32l18.13-25.16h0.1l-3.77,16.83c-0.96,4.05-0.69,4.75-5.39,5.32l-0.71,3.01h15.75
	l0.71-3.01c-3.02-0.16-4.18-1.19-3.53-3.89l5.12-21.52c0.64-2.7,2.29-3.73,5.39-3.89l0.71-3.01h-12.56L86.04,29.98h-0.1L82.54,4.89
	l-23.72-0.1c-5.76,0-10.49,4.07-10.49,9.21s4.17,9.32,9.32,9.32c5.15,0,10.09-3.43,6.65-7.25c-1.47-1.63-5.32,0.15-7.1,2.96
	c-7.4,1.33-6.51-11.7,3.85-11.7c11.55,0,12.33,1.76,11.68,4.45c-2.05,8.43-7.98,36.12-26.34,36.12c-5.18,0-10.66-2.07-10.66-9.92
	c0-4.44,3.55-7.62,8.88-6.96c1.7,3.18,8.51,5.85,9.77,1.78c1.16-3.73-2.81-6.44-8.74-6.44c-5.77,0-14.51,3.78-14.51,11.77
	s5.92,13.33,14.95,13.33C55.13,51.46,68.45,49.38,76.74,15.04"/>
<g>
	<path class="st0" d="M158.66,5.36l-2.88,11.25c-0.42-0.2-0.91-0.34-1.47-0.44c-0.57-0.1-1.18-0.15-1.84-0.15
		c-1.17,0.01-2.33,0.16-3.45,0.48c-1.15,0.31-2.26,0.75-3.33,1.3c-1.08,0.56-2.1,1.22-3.06,1.97c-0.95,0.74-1.83,1.57-2.62,2.47
		c-0.78,0.89-1.45,1.84-2.01,2.83c-0.57,0.99-0.99,1.98-1.26,2.99c-0.26,0.97-0.41,1.97-0.43,2.98c-0.01,0.92,0.09,1.84,0.31,2.74
		c0.19,0.83,0.52,1.63,0.96,2.37c0.83,1.44,2.15,2.53,3.71,3.09c0.84,0.3,1.73,0.45,2.62,0.44c0.96,0,1.98-0.16,3.07-0.49
		c1.09-0.33,2.13-0.78,3.11-1.35l-0.35,1.32h6.85l8.92-33.78L158.66,5.36z M153.88,23.72l-2.94,10.93
		c-0.54,0.49-1.16,0.89-1.83,1.18c-0.33,0.14-0.65,0.25-0.97,0.33c-0.31,0.09-0.6,0.13-0.85,0.13c-0.73,0-1.36-0.26-1.87-0.78
		c-0.51-0.52-0.9-1.2-1.16-2.07c-0.25-0.86-0.37-1.86-0.35-3c0.03-1.22,0.21-2.42,0.54-3.6c0.31-1.16,0.72-2.24,1.23-3.22
		c0.46-0.91,1.03-1.77,1.69-2.55c0.56-0.65,1.2-1.21,1.93-1.67c0.66-0.4,1.31-0.61,1.94-0.61c0.46,0,0.92,0.12,1.33,0.36
		c0.41,0.25,0.76,0.59,1,1.01c0.26,0.42,0.43,0.94,0.5,1.55C154.14,22.31,154.07,22.98,153.88,23.72z"/>
</g>
<g>
	<polygon class="st0" points="166.53,39.85 159.37,39.85 165.49,16.64 172.5,16.64 	"/>
	<path class="st0" d="M167.41,8.69c0.13-0.48,0.35-0.94,0.67-1.36c0.31-0.42,0.69-0.79,1.12-1.11c0.43-0.32,0.91-0.57,1.42-0.75
		c0.5-0.18,1.03-0.27,1.57-0.27c0.53,0,1.01,0.09,1.44,0.27c0.43,0.18,0.77,0.43,1.04,0.75c0.26,0.32,0.44,0.69,0.53,1.11
		c0.09,0.42,0.07,0.87-0.06,1.36c-0.13,0.49-0.36,0.95-0.67,1.36c-0.32,0.42-0.7,0.79-1.13,1.1c-0.44,0.31-0.91,0.56-1.44,0.74
		c-0.51,0.18-1.04,0.27-1.58,0.27c-0.53,0-1-0.09-1.43-0.27c-0.39-0.16-0.74-0.42-1.02-0.74c-0.26-0.32-0.44-0.7-0.52-1.1
		C167.26,9.6,167.28,9.14,167.41,8.69z"/>
</g>
<g>
	<polygon class="st0" points="200.86,39.85 193.7,39.85 199.82,16.64 206.83,16.64 	"/>
	<path class="st0" d="M201.74,8.69c0.13-0.48,0.35-0.94,0.67-1.36c0.31-0.42,0.69-0.79,1.12-1.11c0.43-0.32,0.91-0.57,1.42-0.75
		c0.5-0.18,1.03-0.27,1.57-0.27c0.53,0,1.01,0.09,1.44,0.27c0.43,0.18,0.77,0.43,1.04,0.75c0.26,0.32,0.44,0.69,0.53,1.11
		c0.09,0.42,0.07,0.87-0.06,1.36c-0.13,0.49-0.36,0.95-0.67,1.36c-0.32,0.42-0.7,0.79-1.13,1.1c-0.44,0.31-0.91,0.56-1.44,0.74
		c-0.51,0.18-1.04,0.27-1.58,0.27c-0.53,0-1-0.09-1.43-0.27c-0.39-0.16-0.74-0.42-1.02-0.74c-0.26-0.32-0.44-0.7-0.52-1.1
		C201.59,9.6,201.61,9.14,201.74,8.69z"/>
</g>
<g>
	<path class="st0" d="M134.68,26.29c0.37-1.42,0.45-2.73,0.24-3.96c-0.21-1.22-0.69-2.28-1.42-3.19c-0.73-0.93-1.72-1.64-2.94-2.16
		c-1.22-0.52-2.67-0.78-4.33-0.78c-1.81-0.01-3.61,0.33-5.3,0.99c-1.67,0.64-3.22,1.57-4.61,2.72c-1.4,1.18-2.61,2.58-3.6,4.13
		c-1.01,1.61-1.78,3.36-2.27,5.19c-0.42,1.57-0.49,3.05-0.24,4.43c0.24,1.34,0.79,2.61,1.61,3.69c0.82,1.06,1.88,1.91,3.18,2.54
		c1.31,0.61,2.81,0.93,4.49,0.93c1.31,0,2.67-0.24,4.07-0.73c1.45-0.51,2.82-1.18,4.1-2c1.31-0.85,2.54-1.84,3.64-2.97
		c1.07-1.06,1.99-2.28,2.73-3.61l-3.51-0.55c-0.43,0.75-0.97,1.42-1.58,2.02c-1.28,1.25-2.84,2.19-4.54,2.76
		c-0.82,0.28-1.64,0.42-2.43,0.42c-0.91,0-1.66-0.27-2.27-0.81c-0.6-0.55-1.06-1.27-1.37-2.18c-0.31-0.9-0.48-1.94-0.49-3.13
		c0-1.25,0.13-2.51,0.43-3.73H134.68z M119.98,21.93c0.4-0.58,0.84-1.07,1.3-1.49c0.42-0.37,0.9-0.7,1.4-0.94
		c0.48-0.22,0.96-0.33,1.4-0.33c0.52-0.01,1.03,0.1,1.51,0.34c0.42,0.21,0.79,0.54,1.04,0.94c0.28,0.45,0.46,0.96,0.52,1.48
		c0.07,0.58,0.06,1.22-0.07,1.93h-8.09C119.24,23.17,119.57,22.53,119.98,21.93z"/>
</g>
<path class="st0" d="M185.74,18.44c-0.76,0-1.51,0.19-2.23,0.57c-0.74,0.4-1.42,0.92-1.99,1.55c-0.63,0.68-1.18,1.44-1.62,2.26
	c-0.47,0.86-0.84,1.77-1.09,2.72c-0.34,1.24-0.53,2.51-0.57,3.79c-0.03,1.2,0.11,2.26,0.41,3.17c0.3,0.91,0.77,1.64,1.39,2.19
	c0.63,0.55,1.42,0.82,2.37,0.82c0.79,0,1.56-0.16,2.28-0.48c0.75-0.33,1.45-0.77,2.08-1.3c0.7-0.58,1.34-1.22,1.92-1.92
	c0.62-0.73,1.22-1.52,1.8-2.34l3.18,0.89c-0.77,1.47-1.7,2.86-2.77,4.13c-0.97,1.16-2.09,2.19-3.33,3.06
	c-1.18,0.82-2.47,1.45-3.83,1.9c-1.36,0.44-2.78,0.66-4.21,0.66c-1.62,0-3.07-0.31-4.33-0.94c-1.27-0.62-2.29-1.47-3.06-2.54
	c-0.78-1.07-1.28-2.32-1.51-3.74c-0.23-1.43-0.14-2.94,0.29-4.53c0.47-1.75,1.24-3.39,2.31-4.94c1.06-1.53,2.33-2.9,3.78-4.06
	c1.43-1.15,3.02-2.08,4.73-2.76c1.7-0.68,3.41-1.02,5.13-1.02c1.45,0,2.73,0.15,3.83,0.44c1.1,0.3,1.99,0.71,2.68,1.23
	c0.69,0.53,1.16,1.14,1.41,1.86c0.25,0.72,0.27,1.5,0.04,2.34c-0.11,0.39-0.32,0.76-0.65,1.11c-0.35,0.36-0.74,0.68-1.17,0.94
	c-0.46,0.28-0.96,0.49-1.47,0.64c-0.51,0.15-1.03,0.23-1.56,0.23c-0.56,0-1.04-0.08-1.42-0.25c-0.35-0.14-0.66-0.35-0.91-0.63
	c-0.22-0.25-0.36-0.56-0.42-0.89c-0.06-0.35-0.04-0.7,0.06-1.04c0.1-0.36,0.18-0.72,0.26-1.09c0.07-0.37,0.08-0.7,0.01-1.01
	c-0.06-0.3-0.25-0.57-0.5-0.74C186.74,18.54,186.31,18.44,185.74,18.44"/>
<g>
	<path class="st0" d="M253.03,27.11c0.39-1.42,0.46-2.73,0.25-3.96s-0.69-2.28-1.42-3.19c-0.75-0.93-1.73-1.64-2.96-2.16
		c-1.22-0.52-2.66-0.78-4.31-0.78c-1.81-0.01-3.61,0.33-5.3,0.99c-1.67,0.64-3.24,1.57-4.61,2.72c-1.4,1.18-2.61,2.58-3.6,4.13
		c-1.01,1.61-1.78,3.36-2.27,5.19c-0.42,1.57-0.49,3.05-0.24,4.43c0.24,1.34,0.79,2.61,1.61,3.69c0.81,1.06,1.88,1.91,3.18,2.54
		c1.31,0.61,2.81,0.93,4.49,0.93c1.31,0,2.67-0.24,4.07-0.73c1.45-0.51,2.82-1.18,4.09-2c1.33-0.85,2.55-1.85,3.66-2.97
		c1.07-1.06,1.99-2.28,2.72-3.61l-3.49-0.55c-0.43,0.75-0.97,1.42-1.58,2.02c-1.28,1.25-2.84,2.21-4.54,2.76
		c-0.78,0.27-1.6,0.4-2.43,0.42c-0.91,0-1.66-0.27-2.27-0.81c-0.6-0.55-1.06-1.27-1.37-2.18c-0.31-0.9-0.48-1.94-0.49-3.13
		c-0.01-1.25,0.13-2.51,0.43-3.73H253.03z M238.34,22.76c0.4-0.57,0.84-1.07,1.28-1.48c0.43-0.39,0.91-0.72,1.42-0.96
		c0.45-0.21,0.93-0.31,1.4-0.33c0.52-0.01,1.03,0.1,1.49,0.34c0.43,0.21,0.81,0.54,1.06,0.94c0.28,0.45,0.46,0.96,0.52,1.48
		c0.07,0.58,0.06,1.22-0.07,1.93h-8.09C237.61,23.99,237.94,23.35,238.34,22.76z"/>
</g>
<path class="st0" d="M221.31,24.45c0.16-0.6,0.24-1.12,0.23-1.57c0-0.39-0.07-0.78-0.21-1.15c-0.11-0.29-0.3-0.54-0.56-0.71
	c-0.24-0.16-0.53-0.25-0.82-0.24c-0.31,0-0.67,0.06-1.1,0.19c-0.47,0.14-0.92,0.31-1.37,0.52c-0.49,0.22-1,0.49-1.54,0.81
	c-0.54,0.32-1.07,0.67-1.58,1.06l-4.55,16.97h-7.07l6.21-23.18h7.08l-0.49,1.82c1.22-0.75,2.55-1.33,3.93-1.72
	c1.26-0.36,2.56-0.54,3.87-0.55c0.95,0,1.8,0.18,2.55,0.55c0.73,0.34,1.36,0.86,1.84,1.5c0.47,0.64,0.79,1.38,0.94,2.24
	c0.15,0.86,0.1,1.77-0.16,2.76l-4.44,16.58h-7.01L221.31,24.45z"/>
<g>
	<path class="st0" d="M58.11,95.54h-5.08v12.22h3.28v-3.49h1.63c2.94,0,5.1-1.52,5.1-4.4v-0.04C63.05,97.12,61.11,95.54,58.11,95.54
		z M59.75,100.02c0,0.97-0.7,1.6-1.88,1.6h-1.55v-3.24h1.54c1.19,0,1.9,0.57,1.9,1.61V100.02z"/>
	<polygon class="st0" points="77.63,95.53 80.92,95.53 80.92,100.11 85.14,100.11 85.14,95.53 88.43,95.53 88.43,107.76 
		85.14,107.76 85.14,103.11 80.92,103.11 80.92,107.76 77.63,107.76 	"/>
	<path class="st0" d="M111.01,95.45h-3.16l-5.06,12.31h3.46l0.85-2.19h4.57l0.87,2.19h3.52L111.01,95.45z M108.06,102.94l1.33-3.48
		l1.33,3.48H108.06z"/>
	<path class="st0" d="M138.5,103.49c1.48-0.64,2.43-1.88,2.43-3.75V99.7c0-1.19-0.36-2.15-1.04-2.84c-0.79-0.85-2.04-1.33-3.87-1.33
		h-5.61v12.22h3.28v-3.7h1.45l2.39,3.7h3.79L138.5,103.49z M137.63,99.96c0,0.88-0.64,1.45-1.76,1.45h-2.18v-2.94h2.16
		c1.1,0,1.78,0.49,1.78,1.45V99.96z"/>
	<polygon class="st0" points="155.81,95.53 159.28,95.53 162.11,100.26 164.94,95.53 168.41,95.53 168.41,107.76 165.14,107.76 
		165.14,100.74 162.11,105.52 162.04,105.52 159.02,100.77 159.02,107.76 155.81,107.76 	"/>
	<path class="st0" d="M190.98,95.45h-3.16l-5.05,12.31h3.45l0.85-2.19h4.58l0.87,2.19h3.52L190.98,95.45z M188.04,102.94l1.34-3.48
		l1.31,3.48H188.04z"/>
	<path class="st0" d="M209.99,101.68v-0.03c0-3.56,2.66-6.36,6.25-6.36c2.43,0,3.98,1.05,5.04,2.55l-2.47,1.97
		c-0.68-0.87-1.46-1.43-2.59-1.43c-1.66,0-2.83,1.45-2.83,3.23v0.03c0,1.83,1.17,3.26,2.83,3.26c1.24,0,1.97-0.59,2.68-1.48
		l2.47,1.82c-1.12,1.59-2.63,2.76-5.25,2.76C212.72,108,209.99,105.33,209.99,101.68"/>
	<polygon class="st0" points="239.39,103.18 234.89,95.53 238.63,95.53 241.07,99.98 243.53,95.53 247.21,95.53 242.7,103.13 
		242.7,107.76 239.39,107.76 	"/>
</g>
<path class="st0" d="M71.83,62.37c5.48,3.45,14.07,9.22,11,17.12c-2.72,7.01-7.54,10.32-17.74,10.32c-7.48,0-17.28-3.71-17.28-10.9
	c0-5.12,2.4-9.98,8.62-9.98c6.22,0,8.29,3.55,8.29,5.77c0,2.22-1.03,3.7-3.26,3.7c-2.22,0-2.67-0.89-3.55-2.96
	c-0.59-0.74-5.03-0.89-5.03,2.82c0,4.89,6.51,7.82,13.17,7.82c4.45,0,9.98-2.34,9.98-7.15c0-4.66-5.54-9.99-10.91-12.13
	c-12.4-4.92-10.77-21.7,7.59-21.7c10.81,0,13.47,5.33,13.47,8.74c0,3.41-2.37,5.33-5.33,5.33s-5.18-2.22-5.18-4.29
	c0-2.07,2.81-4.44,5.03-2.52c-0.44-1.63-1.78-3.56-7.99-3.56c-6.22,0-8.44,4.15-8.44,6.66C64.28,57.97,66.65,59.51,71.83,62.37"/>
<g>
	<path class="st0" d="M134.16,69.83c-0.25-1.37-0.85-2.67-1.75-3.75c-0.88-1.07-2.04-1.91-3.48-2.52c-1.43-0.61-3.09-0.91-4.96-0.91
		c-1.87,0-3.72,0.31-5.46,0.93c-3.49,1.21-6.51,3.51-8.61,6.57c-1.06,1.52-1.84,3.22-2.31,5.03c-0.46,1.69-0.55,3.25-0.28,4.72
		c0.27,1.46,0.84,2.73,1.7,3.81c0.87,1.09,2.02,1.94,3.45,2.55c1.42,0.61,3.07,0.93,4.97,0.93c1.87,0,3.73-0.34,5.48-1
		c1.76-0.66,3.4-1.58,4.88-2.75c1.48-1.15,2.76-2.51,3.82-4.03c1.06-1.49,1.84-3.16,2.31-4.93
		C134.35,72.82,134.44,71.27,134.16,69.83z M126.44,72.24c-0.16,1.45-0.43,2.87-0.82,4.27c-0.27,1.03-0.66,2.02-1.13,2.96
		c-0.43,0.9-0.97,1.72-1.6,2.49c-0.54,0.66-1.16,1.24-1.88,1.7c-0.66,0.43-1.31,0.64-1.97,0.64c-0.97,0-1.76-0.3-2.37-0.88
		c-0.61-0.6-1.04-1.4-1.31-2.42c-0.25-1.02-0.34-2.19-0.27-3.55c0.1-1.45,0.36-2.9,0.75-4.31c0.27-1.01,0.66-1.99,1.13-2.91
		c0.46-0.87,1-1.69,1.63-2.45c0.52-0.64,1.13-1.21,1.82-1.67c0.63-0.42,1.24-0.63,1.79-0.63c1.18,0,2.09,0.3,2.75,0.88
		c0.64,0.6,1.09,1.37,1.33,2.37C126.53,69.73,126.57,70.89,126.44,72.24z"/>
</g>
<g>
	<path class="st0" d="M207.51,72.7c0.37-1.4,0.46-2.73,0.25-3.96c-0.21-1.22-0.69-2.28-1.43-3.19c-0.73-0.93-1.72-1.64-2.94-2.16
		c-1.22-0.52-2.66-0.78-4.31-0.78c-1.82-0.01-3.61,0.33-5.31,0.99c-1.67,0.64-3.22,1.57-4.6,2.72c-1.4,1.19-2.63,2.58-3.6,4.13
		c-1.03,1.61-1.79,3.36-2.28,5.19c-0.4,1.57-0.49,3.05-0.24,4.43c0.24,1.34,0.79,2.61,1.61,3.69c0.82,1.06,1.88,1.91,3.19,2.54
		c1.3,0.61,2.79,0.93,4.48,0.93c1.31,0,2.67-0.24,4.09-0.73c1.43-0.51,2.81-1.18,4.09-2c1.33-0.85,2.55-1.84,3.66-2.96
		c1.06-1.07,1.99-2.3,2.72-3.63l-3.49-0.55c-0.43,0.75-0.97,1.42-1.6,2.02c-1.27,1.25-2.82,2.21-4.52,2.76
		c-0.84,0.28-1.64,0.42-2.43,0.42c-0.91,0-1.67-0.27-2.27-0.81c-0.61-0.54-1.06-1.27-1.37-2.16c-0.31-0.91-0.48-1.96-0.49-3.13
		c-0.01-1.27,0.13-2.52,0.43-3.75H207.51z M192.82,68.34c0.39-0.57,0.82-1.07,1.28-1.48c0.42-0.39,0.9-0.72,1.42-0.96
		c0.43-0.21,0.91-0.31,1.39-0.33c0.52-0.01,1.04,0.1,1.51,0.34c0.43,0.21,0.79,0.54,1.06,0.94c0.28,0.45,0.45,0.96,0.51,1.48
		c0.09,0.58,0.06,1.22-0.06,1.93h-8.11C192.07,69.58,192.42,68.94,192.82,68.34z"/>
</g>
<path class="st0" d="M100.57,71.51c0.32-1.18,0.37-2.09,0.15-2.71c-0.22-0.62-0.63-0.93-1.24-0.93c-0.27,0-0.64,0.06-1.09,0.18
	c-0.5,0.14-0.99,0.31-1.46,0.52c-0.53,0.23-1.06,0.49-1.61,0.8c-0.54,0.3-1.07,0.63-1.57,1l-4.52,16.85h-7.05l9.12-34.15l7.06-0.05
	L94.9,66.07c0.63-0.38,1.29-0.71,1.97-1c0.68-0.29,1.37-0.53,2.06-0.73c0.67-0.19,1.35-0.34,2.04-0.43
	c0.64-0.09,1.29-0.14,1.93-0.14c0.93,0,1.75,0.18,2.47,0.55c0.7,0.34,1.3,0.86,1.73,1.5c0.44,0.63,0.71,1.38,0.83,2.24
	c0.12,0.86,0.05,1.77-0.21,2.74l-4.4,16.42h-6.98L100.57,71.51L100.57,71.51z"/>
<path class="st0" d="M158.86,68.01c-0.12-1.31-0.48-2.46-1.06-3.43c-0.58-0.99-1.4-1.76-2.45-2.33c-1.03-0.58-2.3-0.87-3.76-0.87
	c-1.37,0-2.64,0.21-3.79,0.63c-1.12,0.42-2.19,0.96-3.18,1.63l0.48-1.81h-7l-8.55,31.96h7l2.46-9.21c0.55,0.27,1.16,0.43,1.81,0.51
	c0.66,0.07,1.43,0.1,2.34,0.1c1.76,0.01,3.52-0.33,5.15-0.99c1.63-0.66,3.13-1.57,4.45-2.72c1.36-1.19,2.54-2.58,3.48-4.13
	c0.99-1.61,1.73-3.37,2.22-5.19C158.84,70.7,158.98,69.31,158.86,68.01z M151.14,70.52c-0.09,1.12-0.33,2.42-0.73,3.88
	c-0.3,1.16-0.72,2.24-1.21,3.22c-0.45,0.9-0.99,1.73-1.61,2.52c-0.58,0.7-1.19,1.25-1.84,1.66c-0.64,0.4-1.25,0.6-1.84,0.6
	c-0.66,0-1.22-0.1-1.7-0.31c-0.46-0.21-0.85-0.51-1.12-0.87c-0.28-0.36-0.46-0.79-0.54-1.27c-0.07-0.52-0.03-1.06,0.1-1.57
	l2.72-10.12c0.39-0.37,0.81-0.75,1.24-1.09c0.42-0.34,0.85-0.64,1.31-0.91c0.43-0.25,0.88-0.45,1.34-0.61
	c0.43-0.15,0.88-0.22,1.34-0.22c0.57-0.01,1.1,0.18,1.52,0.57c0.42,0.37,0.72,0.94,0.88,1.7C151.19,68.46,151.23,69.4,151.14,70.52z
	 M182.99,68.01c-0.12-1.31-0.48-2.46-1.06-3.43c-0.6-0.99-1.4-1.76-2.45-2.33c-1.04-0.58-2.3-0.87-3.76-0.87
	c-1.39,0-2.64,0.21-3.81,0.63c-1.12,0.42-2.18,0.96-3.16,1.63l0.48-1.81h-7l-8.55,31.96h7l2.46-9.21c0.57,0.27,1.18,0.43,1.81,0.51
	c0.66,0.07,1.43,0.1,2.34,0.1c1.76,0.01,3.51-0.33,5.15-0.99c1.63-0.66,3.13-1.57,4.45-2.72c1.36-1.19,2.52-2.58,3.46-4.13
	c1-1.61,1.75-3.37,2.22-5.19C182.96,70.7,183.11,69.31,182.99,68.01z M175.28,70.52c-0.09,1.12-0.34,2.42-0.73,3.88
	c-0.31,1.16-0.72,2.24-1.21,3.22c-0.45,0.9-0.99,1.73-1.63,2.52c-0.58,0.7-1.19,1.25-1.82,1.66c-0.64,0.4-1.25,0.6-1.85,0.6
	c-0.66,0-1.21-0.1-1.69-0.31c-0.48-0.21-0.85-0.51-1.13-0.87c-0.28-0.36-0.45-0.79-0.54-1.27c-0.06-0.52-0.03-1.06,0.12-1.57
	l2.72-10.12c0.39-0.37,0.79-0.75,1.22-1.09c0.42-0.34,0.87-0.64,1.33-0.91c0.43-0.25,0.88-0.45,1.34-0.61
	c0.43-0.15,0.88-0.22,1.34-0.22c0.55-0.01,1.1,0.18,1.52,0.57c0.42,0.37,0.7,0.94,0.88,1.7C175.32,68.46,175.35,69.4,175.28,70.52z"
	/>
</svg>
